# xmcd CD database generated by RipIT
#
# Track frame offsets:
# 150
# 14201
# 28889
# 42549
# 56266
# 69453
# 82696
# 95624
# 106331
# 118037
# 130155
# 142729
# 154194
# 167973
# 180275
# 195552
# 207912
# 221806
#
# Disc length: 3112 seconds
#
# Revision: 0
# Processed by: cddbd v1.5.2PL0 Copyright (c) Steve Scherf et al.
# Submitted via: RipIT 3.6.0 www.suwald.com/ripit/ripit.html on 2009-05-23 at 22:26
#
DISCID=fc0c2612
DTITLE=Teddy Wilson - The Piano Artistry Of
DYEAR=1999
DGENRE=Jazz
TTITLE0=I_Surrender_Dear
TTITLE1=Body_And_Soul
TTITLE2=I_Can't_Get_Started
TTITLE3=These_Foolish_Things
TTITLE4=Hallelujah
TTITLE5=Strange_Interlude
TTITLE6=Just_Like_A_Butterfly
TTITLE7=Fine_And_Dandy
TTITLE8=Living_In_Dreams
TTITLE9=I've_Got_The_World_On_A_String
TTITLE10=Isn't_It_Romantic?
TTITLE11=Ain't_Misbehavin'
TTITLE12=Bess,_You_Is_My_Woman
TTITLE13=Chinatown,_My_Chinatown
TTITLE14=Something_I_Dreamed_Last_Night
TTITLE15=Whispering
TTITLE16=Georgia_On_My_Mind
TTITLE17=The_Sheik_Of_Araby
EXTD=
EXTT0=
EXTT1=
EXTT2=
EXTT3=
EXTT4=
EXTT5=
EXTT6=
EXTT7=
EXTT8=
EXTT9=
EXTT10=
EXTT11=
EXTT12=
EXTT13=
EXTT14=
EXTT15=
EXTT16=
EXTT17=
PLAYORDER=
